# Blender v2.93.1 OBJ File: ''
# www.blender.org
mtllib room.mtl
o Plane
v -10.000000 0.000000 10.000000
v 10.000000 0.000000 10.000000
v -10.000000 0.000000 -10.000000
v 10.000000 0.000000 -10.000000
vt 0.000000 0.000000
vt 1.000000 0.000000
vt 1.000000 1.000000
vt 0.000000 1.000000
vn 0.0000 1.0000 0.0000
usemtl Floor
s off
f 1/1/1 2/2/1 4/3/1 3/4/1
o Plane.001
v -9.890599 19.390476 10.000000
v -9.890599 -0.609525 10.000000
v -9.890599 19.390476 -10.000000
v -9.890599 -0.609525 -10.000000
vt 0.000000 0.000000
vt 1.000000 0.000000
vt 1.000000 1.000000
vt 0.000000 1.000000
vn 1.0000 0.0000 0.0000
usemtl wall
s off
f 5/5/2 6/6/2 8/7/2 7/8/2
o Plane.002
v 9.876834 19.390476 10.000000
v 9.876834 -0.609525 10.000000
v 9.876834 19.390476 -10.000000
v 9.876834 -0.609525 -10.000000
vt 0.000000 0.000000
vt 1.000000 0.000000
vt 1.000000 1.000000
vt 0.000000 1.000000
vn 1.0000 0.0000 0.0000
usemtl wall
s off
f 9/9/3 10/10/3 12/11/3 11/12/3
o Plane.004
v -9.947517 19.390474 -9.943423
v -9.947515 -0.609526 -9.943423
v 10.052124 19.390476 -9.823655
v 10.052126 -0.609524 -9.823655
vt 0.000000 0.000000
vt 1.000000 0.000000
vt 1.000000 1.000000
vt 0.000000 1.000000
vn -0.0060 -0.0000 1.0000
usemtl wall
s off
f 13/13/4 14/14/4 16/15/4 15/16/4
o Plane.003
v -10.065891 19.390474 9.823655
v -10.065889 -0.609526 9.823655
v 9.933750 19.390476 9.943423
v 9.933752 -0.609524 9.943423
vt 0.000000 0.000000
vt 1.000000 0.000000
vt 1.000000 1.000000
vt 0.000000 1.000000
vn -0.0060 -0.0000 1.0000
usemtl wall
s off
f 17/17/5 18/18/5 20/19/5 19/20/5
