# Blender v2.93.1 OBJ File: ''
# www.blender.org
mtllib model.mtl
o Cube
v 1.000000 -1.000000 -1.000000
v 1.000000 -1.000000 1.000000
v -1.000000 -1.000000 -1.000000
v -1.000000 -1.000000 1.000000
v 0.784838 0.833709 -1.072862
v 0.671401 1.093553 -0.671401
v 1.072862 0.833709 -0.784838
v 0.545686 1.072862 -0.833709
v 0.833709 1.072862 -0.545686
v 1.000000 0.671401 -1.000000
v 1.072862 0.833709 0.784838
v 0.671401 1.093553 0.671401
v 0.784838 0.833709 1.072862
v 0.833709 1.072862 0.545686
v 0.545686 1.072862 0.833709
v 1.000000 0.671401 1.000000
v -0.671401 1.093553 -0.671401
v -0.784838 0.833709 -1.072862
v -1.072862 0.833709 -0.784838
v -0.545686 1.072862 -0.833709
v -1.000000 0.671401 -1.000000
v -0.833709 1.072862 -0.545686
v -0.671401 1.093553 0.671401
v -1.072862 0.833709 0.784838
v -0.784838 0.833709 1.072862
v -0.833709 1.072862 0.545686
v -1.000000 0.671401 1.000000
v -0.545686 1.072862 0.833709
vt 0.884108 0.723105
vt 0.884108 0.526895
vt 0.854213 0.556789
vt 0.854214 0.693211
vt 0.125000 0.500000
vt 0.375000 0.500000
vt 0.375000 0.750000
vt 0.125000 0.750000
vt 0.583925 0.500000
vt 0.583925 0.750000
vt 0.375000 0.250000
vt 0.583925 0.250000
vt 0.583925 1.000000
vt 0.375000 1.000000
vt 0.666075 0.541075
vt 0.833925 0.541075
vt 0.833925 0.708925
vt 0.666075 0.708925
vt 0.375000 0.000000
vt 0.583925 0.000000
vt 0.595106 0.526895
vt 0.595106 0.723105
vt 0.654894 0.693211
vt 0.654894 0.556789
vt 0.651895 0.759108
vt 0.848105 0.759108
vt 0.818211 0.729214
vt 0.681789 0.729214
vt 0.651895 0.490892
vt 0.666075 0.511679
vt 0.627893 0.502893
vt 0.681789 0.520786
vt 0.636679 0.511679
vt 0.625000 0.500000
vt 0.615892 0.741106
vt 0.666075 0.738321
vt 0.627893 0.747107
vt 0.645787 0.711212
vt 0.681789 0.750000
vt 0.625000 0.750000
vt 0.848105 0.490892
vt 0.836212 0.520786
vt 0.875000 0.500000
vt 0.875000 0.556789
vt 0.875000 0.750000
vt 0.863321 0.738321
vt 0.636679 0.738321
vt 0.627893 0.747107
vt 0.818211 0.520786
vn 0.7071 -0.7071 0.0000
vn 0.0000 -1.0000 0.0000
vn 1.0000 0.0000 0.0000
vn 0.0000 0.0000 -1.0000
vn 0.0000 0.0000 1.0000
vn 0.0000 1.0000 0.0000
vn -1.0000 0.0000 0.0000
vn -0.7071 -0.7071 -0.0000
vn -0.0000 -0.7071 -0.7071
vn 0.4108 0.8140 -0.4108
vn 0.4773 0.7378 -0.4773
vn 0.4108 0.8140 0.4108
vn 0.4773 0.7378 0.4773
vn -0.4108 0.8140 -0.4108
vn -0.4773 0.7378 -0.4773
vn -0.4108 0.8140 0.4108
vn -0.4773 0.7378 0.4773
vn -0.4082 -0.8165 -0.4082
vn 0.0000 0.8395 0.5434
vn 0.4082 -0.8165 -0.4082
vn -0.0000 0.3827 0.9239
vn -0.4082 -0.8165 0.4082
vn 0.5434 0.8395 -0.0000
vn 0.9239 0.3827 0.0000
vn -0.5434 0.8395 0.0000
vn 0.4082 -0.8165 0.4082
vn -0.9239 0.3827 -0.0000
vn -0.0000 0.8395 -0.5434
vn 0.0000 0.3827 -0.9239
vn 0.0000 -0.7071 0.7071
usemtl Material
s off
f 24/1/1 19/2/1 22/3/1 26/4/1
f 3/5/2 1/6/2 2/7/2 4/8/2
f 1/6/3 10/9/3 16/10/3 2/7/3
f 3/11/4 21/12/4 10/9/4 1/6/4
f 2/7/5 16/10/5 27/13/5 4/14/5
f 6/15/6 17/16/6 23/17/6 12/18/6
f 4/19/7 27/20/7 21/12/7 3/11/7
f 7/21/8 11/22/8 14/23/8 9/24/8
f 13/25/9 25/26/9 28/27/9 15/28/9
f 5/29/10 6/30/10 7/31/10
f 8/32/11 9/33/11 10/34/11
f 11/35/12 12/36/12 13/37/12
f 14/38/13 15/39/13 16/40/13
f 17/16/14 18/41/14 19/2/14
f 20/42/15 21/43/15 22/44/15
f 23/17/16 24/1/16 25/26/16
f 26/4/17 27/45/17 28/46/17
f 14/47/18 11/48/18 13/25/18 15/28/18
f 12/18/19 23/17/19 25/26/19 13/25/19
f 24/1/20 26/4/20 28/27/20 25/26/20
f 27/45/21 16/40/21 15/28/21 28/27/21
f 8/32/22 5/29/22 7/31/22 9/33/22
f 6/15/23 12/18/23 11/22/23 7/21/23
f 16/10/24 10/9/24 9/24/24 14/23/24
f 23/17/25 17/16/25 19/2/25 24/1/25
f 18/41/26 20/49/26 22/3/26 19/2/26
f 21/43/27 27/45/27 26/4/27 22/3/27
f 17/16/28 6/15/28 5/29/28 18/41/28
f 10/34/29 21/43/29 20/49/29 8/32/29
f 18/41/30 5/29/30 8/32/30 20/49/30
