# Blender v2.93.1 OBJ File: ''
# www.blender.org
mtllib Test.mtl
o Cube.001
v -1.072862 0.833709 0.784838
v -1.072862 0.833709 -0.784838
v -0.833709 1.072862 -0.545686
v -0.833709 1.072862 0.545686
v -1.000000 -1.000000 -1.000000
v 1.000000 -1.000000 -1.000000
v 1.000000 -1.000000 1.000000
v -1.000000 -1.000000 1.000000
v 1.000000 0.671401 -1.000000
v 1.000000 0.671401 1.000000
v -1.000000 0.671401 -1.000000
v -1.000000 0.671401 1.000000
v 0.671401 1.093553 -0.671401
v -0.671401 1.093553 -0.671401
v -0.671401 1.093553 0.671401
v 0.671401 1.093553 0.671401
v 1.072862 0.833709 -0.784838
v 1.072862 0.833709 0.784838
v 0.833709 1.072862 0.545686
v 0.833709 1.072862 -0.545686
v 0.784838 0.833709 1.072862
v -0.784838 0.833709 1.072862
v -0.545686 1.072862 0.833709
v 0.545686 1.072862 0.833709
v 0.784838 0.833709 -1.072862
v 0.545686 1.072862 -0.833709
v -0.784838 0.833709 -1.072862
v -0.545686 1.072862 -0.833709
vt 0.934889 0.732871
vt 0.934889 0.536661
vt 0.904994 0.566555
vt 0.904995 0.702977
vt 0.175781 0.509766
vt 0.425781 0.509766
vt 0.425781 0.759766
vt 0.175781 0.759766
vt 0.634706 0.509766
vt 0.634706 0.759766
vt 0.425781 0.259766
vt 0.634706 0.259766
vt 0.634706 1.009766
vt 0.425781 1.009766
vt 0.716856 0.550841
vt 0.884706 0.550841
vt 0.884706 0.718691
vt 0.716856 0.718691
vt 0.425781 0.009766
vt 0.634706 0.009766
vt 0.595106 0.526895
vt 0.595106 0.723105
vt 0.654894 0.693211
vt 0.654894 0.556789
vt 0.702676 0.768874
vt 0.898886 0.768874
vt 0.868992 0.738980
vt 0.732570 0.738980
vt 0.651895 0.490892
vt 0.666075 0.511679
vt 0.627893 0.502893
vt 0.732570 0.530552
vt 0.687460 0.521445
vt 0.675781 0.509766
vt 0.666673 0.750872
vt 0.716856 0.748087
vt 0.678674 0.756873
vt 0.696568 0.720978
vt 0.732570 0.759766
vt 0.675781 0.759766
vt 0.898886 0.500658
vt 0.886993 0.530552
vt 0.925781 0.509766
vt 0.925781 0.566555
vt 0.925781 0.759766
vt 0.914102 0.748087
vt 0.687460 0.748087
vt 0.678674 0.756873
vt 0.681789 0.520786
vt 0.636679 0.511679
vt 0.666075 0.541075
vt 0.666075 0.708925
vt 0.705675 0.566555
vt 0.705675 0.702977
vt 0.868992 0.530552
vt 0.702676 0.500658
vn 0.7071 -0.7071 -0.0000
vn 0.0000 -1.0000 -0.0000
vn 1.0000 0.0000 0.0000
vn 0.0000 0.0000 -1.0000
vn 0.0000 -0.0000 1.0000
vn 0.0000 1.0000 0.0000
vn -1.0000 0.0000 0.0000
vn -0.7071 -0.7071 -0.0000
vn 0.0000 -0.7071 -0.7071
vn 0.4108 0.8140 -0.4108
vn 0.4773 0.7378 -0.4773
vn 0.4108 0.8140 0.4108
vn 0.4773 0.7378 0.4773
vn -0.4108 0.8140 -0.4108
vn -0.4773 0.7378 -0.4773
vn -0.4108 0.8140 0.4108
vn -0.4773 0.7378 0.4773
vn -0.4082 -0.8165 -0.4082
vn 0.0000 0.8395 0.5434
vn 0.4082 -0.8165 -0.4082
vn 0.0000 0.3827 0.9239
vn -0.4082 -0.8165 0.4082
vn 0.5434 0.8395 0.0000
vn 0.9239 0.3827 0.0000
vn -0.5434 0.8395 0.0000
vn 0.4082 -0.8165 0.4082
vn -0.9239 0.3827 0.0000
vn 0.0000 0.8395 -0.5434
vn 0.0000 0.3827 -0.9239
vn 0.0000 -0.7071 0.7071
usemtl Material.002
s 1
f 1/1/1 2/2/1 3/3/1 4/4/1
f 5/5/2 6/6/2 7/7/2 8/8/2
f 6/6/3 9/9/3 10/10/3 7/7/3
f 5/11/4 11/12/4 9/9/4 6/6/4
f 7/7/5 10/10/5 12/13/5 8/14/5
f 13/15/6 14/16/6 15/17/6 16/18/6
f 8/19/7 12/20/7 11/12/7 5/11/7
f 17/21/8 18/22/8 19/23/8 20/24/8
f 21/25/9 22/26/9 23/27/9 24/28/9
f 25/29/10 13/30/10 17/31/10
f 26/32/11 20/33/11 9/34/11
f 18/35/12 16/36/12 21/37/12
f 19/38/13 24/39/13 10/40/13
f 14/16/14 27/41/14 2/2/14
f 28/42/15 11/43/15 3/44/15
f 15/17/16 1/1/16 22/26/16
f 4/4/17 12/45/17 23/46/17
f 19/47/18 18/48/18 21/25/18 24/28/18
f 16/18/19 15/17/19 22/26/19 21/25/19
f 1/1/20 4/4/20 23/27/20 22/26/20
f 12/45/21 10/40/21 24/28/21 23/27/21
f 26/49/22 25/29/22 17/31/22 20/50/22
f 13/51/23 16/52/23 18/22/23 17/21/23
f 10/10/24 9/9/24 20/53/24 19/54/24
f 15/17/25 14/16/25 2/2/25 1/1/25
f 27/41/26 28/55/26 3/3/26 2/2/26
f 11/43/27 12/45/27 4/4/27 3/3/27
f 14/16/28 13/15/28 25/56/28 27/41/28
f 9/34/29 11/43/29 28/55/29 26/32/29
f 27/41/30 25/56/30 26/32/30 28/55/30
